<mxfile host="app.diagrams.net" agent="Mozilla/5.0 (Windows NT 10.0; Win64; x64) AppleWebKit/537.36 (KHTML, like Gecko) Chrome/136.0.0.0 Safari/537.36" version="27.0.4">
  <diagram name="Page-1" id="0783ab3e-0a74-02c8-0abd-f7b4e66b4bec">
    <mxGraphModel dx="2084" dy="1068" grid="1" gridSize="10" guides="1" tooltips="1" connect="1" arrows="1" fold="1" page="1" pageScale="1" pageWidth="850" pageHeight="1100" background="none" math="0" shadow="0">
      <root>
        <mxCell id="0" />
        <mxCell id="1" parent="0" />
        <mxCell id="HCqicC56nlTVHEbhGD_D-1" value="Admin perusahaan" style="swimlane;whiteSpace=wrap;html=1;" parent="1" vertex="1">
          <mxGeometry y="20" width="300" height="1410" as="geometry" />
        </mxCell>
        <mxCell id="HCqicC56nlTVHEbhGD_D-81" style="edgeStyle=orthogonalEdgeStyle;rounded=0;orthogonalLoop=1;jettySize=auto;html=1;entryX=0.5;entryY=0;entryDx=0;entryDy=0;" parent="HCqicC56nlTVHEbhGD_D-1" source="HCqicC56nlTVHEbhGD_D-3" target="HCqicC56nlTVHEbhGD_D-5" edge="1">
          <mxGeometry relative="1" as="geometry" />
        </mxCell>
        <mxCell id="HCqicC56nlTVHEbhGD_D-3" value="" style="ellipse;whiteSpace=wrap;html=1;aspect=fixed;strokeColor=#000000;fillColor=#000000;" parent="HCqicC56nlTVHEbhGD_D-1" vertex="1">
          <mxGeometry x="125" y="50" width="50" height="50" as="geometry" />
        </mxCell>
        <mxCell id="HCqicC56nlTVHEbhGD_D-4" value="Mulai" style="text;html=1;align=center;verticalAlign=middle;resizable=0;points=[];autosize=1;strokeColor=none;fillColor=none;" parent="HCqicC56nlTVHEbhGD_D-1" vertex="1">
          <mxGeometry x="75" y="60" width="50" height="30" as="geometry" />
        </mxCell>
        <mxCell id="HCqicC56nlTVHEbhGD_D-5" value="Membuka Halaman Beranda" style="rounded=1;whiteSpace=wrap;html=1;" parent="HCqicC56nlTVHEbhGD_D-1" vertex="1">
          <mxGeometry x="90" y="140" width="120" height="60" as="geometry" />
        </mxCell>
        <mxCell id="HCqicC56nlTVHEbhGD_D-7" value="Login" style="rounded=1;whiteSpace=wrap;html=1;" parent="HCqicC56nlTVHEbhGD_D-1" vertex="1">
          <mxGeometry x="90" y="230" width="120" height="60" as="geometry" />
        </mxCell>
        <mxCell id="HCqicC56nlTVHEbhGD_D-22" value="Halaman Interview" style="rounded=1;whiteSpace=wrap;html=1;" parent="HCqicC56nlTVHEbhGD_D-1" vertex="1">
          <mxGeometry x="90" y="500" width="120" height="60" as="geometry" />
        </mxCell>
        <mxCell id="P764LjMasquFLIwP9RHS-71" style="edgeStyle=orthogonalEdgeStyle;rounded=0;orthogonalLoop=1;jettySize=auto;html=1;entryX=0.5;entryY=0;entryDx=0;entryDy=0;" edge="1" parent="HCqicC56nlTVHEbhGD_D-1" source="HCqicC56nlTVHEbhGD_D-74" target="P764LjMasquFLIwP9RHS-72">
          <mxGeometry relative="1" as="geometry">
            <mxPoint x="150" y="1110" as="targetPoint" />
          </mxGeometry>
        </mxCell>
        <mxCell id="HCqicC56nlTVHEbhGD_D-74" value="Tampilan Hasil Analisis" style="rounded=1;whiteSpace=wrap;html=1;" parent="HCqicC56nlTVHEbhGD_D-1" vertex="1">
          <mxGeometry x="90" y="1020" width="120" height="60" as="geometry" />
        </mxCell>
        <mxCell id="P764LjMasquFLIwP9RHS-72" value="Logout" style="rounded=1;whiteSpace=wrap;html=1;" vertex="1" parent="HCqicC56nlTVHEbhGD_D-1">
          <mxGeometry x="90" y="1210" width="120" height="60" as="geometry" />
        </mxCell>
        <mxCell id="HCqicC56nlTVHEbhGD_D-2" value="Ai Trainer" style="swimlane;whiteSpace=wrap;html=1;" parent="1" vertex="1">
          <mxGeometry x="300" y="20" width="530" height="1410" as="geometry" />
        </mxCell>
        <mxCell id="HCqicC56nlTVHEbhGD_D-6" value="Menampilkan Halaman Beranda" style="rounded=1;whiteSpace=wrap;html=1;" parent="HCqicC56nlTVHEbhGD_D-2" vertex="1">
          <mxGeometry x="210" y="140" width="120" height="60" as="geometry" />
        </mxCell>
        <mxCell id="HCqicC56nlTVHEbhGD_D-12" style="edgeStyle=orthogonalEdgeStyle;rounded=0;orthogonalLoop=1;jettySize=auto;html=1;entryX=0.5;entryY=0;entryDx=0;entryDy=0;" parent="HCqicC56nlTVHEbhGD_D-2" source="HCqicC56nlTVHEbhGD_D-10" target="HCqicC56nlTVHEbhGD_D-11" edge="1">
          <mxGeometry relative="1" as="geometry" />
        </mxCell>
        <mxCell id="HCqicC56nlTVHEbhGD_D-10" value="Validasi Login" style="rounded=1;whiteSpace=wrap;html=1;" parent="HCqicC56nlTVHEbhGD_D-2" vertex="1">
          <mxGeometry x="225" y="280" width="120" height="60" as="geometry" />
        </mxCell>
        <mxCell id="HCqicC56nlTVHEbhGD_D-15" style="edgeStyle=orthogonalEdgeStyle;rounded=0;orthogonalLoop=1;jettySize=auto;html=1;entryX=0.5;entryY=0;entryDx=0;entryDy=0;" parent="HCqicC56nlTVHEbhGD_D-2" source="HCqicC56nlTVHEbhGD_D-11" target="HCqicC56nlTVHEbhGD_D-13" edge="1">
          <mxGeometry relative="1" as="geometry">
            <Array as="points">
              <mxPoint x="360" y="385" />
              <mxPoint x="360" y="500" />
            </Array>
          </mxGeometry>
        </mxCell>
        <mxCell id="HCqicC56nlTVHEbhGD_D-18" value="ya" style="edgeLabel;html=1;align=center;verticalAlign=middle;resizable=0;points=[];" parent="HCqicC56nlTVHEbhGD_D-15" vertex="1" connectable="0">
          <mxGeometry x="0.6428" y="-3" relative="1" as="geometry">
            <mxPoint x="3" y="1" as="offset" />
          </mxGeometry>
        </mxCell>
        <mxCell id="HCqicC56nlTVHEbhGD_D-11" value="" style="rhombus;whiteSpace=wrap;html=1;" parent="HCqicC56nlTVHEbhGD_D-2" vertex="1">
          <mxGeometry x="245" y="360" width="80" height="50" as="geometry" />
        </mxCell>
        <mxCell id="HCqicC56nlTVHEbhGD_D-13" value="Tampilan Interview" style="rounded=1;whiteSpace=wrap;html=1;" parent="HCqicC56nlTVHEbhGD_D-2" vertex="1">
          <mxGeometry x="300" y="500" width="120" height="60" as="geometry" />
        </mxCell>
        <mxCell id="HCqicC56nlTVHEbhGD_D-14" value="Menampilkan Login Gagal" style="rounded=1;whiteSpace=wrap;html=1;" parent="HCqicC56nlTVHEbhGD_D-2" vertex="1">
          <mxGeometry x="110" y="420" width="120" height="60" as="geometry" />
        </mxCell>
        <mxCell id="HCqicC56nlTVHEbhGD_D-17" style="edgeStyle=orthogonalEdgeStyle;rounded=0;orthogonalLoop=1;jettySize=auto;html=1;entryX=0.5;entryY=0;entryDx=0;entryDy=0;exitX=0;exitY=0.5;exitDx=0;exitDy=0;" parent="HCqicC56nlTVHEbhGD_D-2" source="HCqicC56nlTVHEbhGD_D-11" target="HCqicC56nlTVHEbhGD_D-14" edge="1">
          <mxGeometry relative="1" as="geometry">
            <mxPoint x="180" y="445" as="sourcePoint" />
            <mxPoint x="110" y="490" as="targetPoint" />
            <Array as="points">
              <mxPoint x="170" y="385" />
              <mxPoint x="170" y="420" />
            </Array>
          </mxGeometry>
        </mxCell>
        <mxCell id="HCqicC56nlTVHEbhGD_D-19" value="Tidak" style="edgeLabel;html=1;align=center;verticalAlign=middle;resizable=0;points=[];" parent="HCqicC56nlTVHEbhGD_D-17" vertex="1" connectable="0">
          <mxGeometry x="0.6209" y="-1" relative="1" as="geometry">
            <mxPoint as="offset" />
          </mxGeometry>
        </mxCell>
        <mxCell id="HCqicC56nlTVHEbhGD_D-55" style="edgeStyle=orthogonalEdgeStyle;rounded=0;orthogonalLoop=1;jettySize=auto;html=1;entryX=0.5;entryY=0;entryDx=0;entryDy=0;" parent="HCqicC56nlTVHEbhGD_D-2" source="HCqicC56nlTVHEbhGD_D-24" target="HCqicC56nlTVHEbhGD_D-27" edge="1">
          <mxGeometry relative="1" as="geometry" />
        </mxCell>
        <mxCell id="HCqicC56nlTVHEbhGD_D-24" value="Memulai Sesi" style="rounded=1;whiteSpace=wrap;html=1;" parent="HCqicC56nlTVHEbhGD_D-2" vertex="1">
          <mxGeometry x="200" y="600" width="120" height="60" as="geometry" />
        </mxCell>
        <mxCell id="HCqicC56nlTVHEbhGD_D-57" style="edgeStyle=orthogonalEdgeStyle;rounded=0;orthogonalLoop=1;jettySize=auto;html=1;entryX=0.415;entryY=0.037;entryDx=0;entryDy=0;entryPerimeter=0;" parent="HCqicC56nlTVHEbhGD_D-2" source="HCqicC56nlTVHEbhGD_D-27" target="HCqicC56nlTVHEbhGD_D-52" edge="1">
          <mxGeometry relative="1" as="geometry">
            <Array as="points">
              <mxPoint x="260" y="735" />
              <mxPoint x="190" y="735" />
              <mxPoint x="190" y="760" />
            </Array>
          </mxGeometry>
        </mxCell>
        <mxCell id="HCqicC56nlTVHEbhGD_D-58" style="edgeStyle=orthogonalEdgeStyle;rounded=0;orthogonalLoop=1;jettySize=auto;html=1;entryX=0.5;entryY=0;entryDx=0;entryDy=0;" parent="HCqicC56nlTVHEbhGD_D-2" source="HCqicC56nlTVHEbhGD_D-27" target="HCqicC56nlTVHEbhGD_D-53" edge="1">
          <mxGeometry relative="1" as="geometry" />
        </mxCell>
        <mxCell id="HCqicC56nlTVHEbhGD_D-27" value="" style="rounded=1;whiteSpace=wrap;html=1;fillColor=light-dark(#040404, #ededed);" parent="HCqicC56nlTVHEbhGD_D-2" vertex="1">
          <mxGeometry x="165" y="700" width="190" height="10" as="geometry" />
        </mxCell>
        <mxCell id="HCqicC56nlTVHEbhGD_D-68" style="edgeStyle=orthogonalEdgeStyle;rounded=0;orthogonalLoop=1;jettySize=auto;html=1;entryX=0.3;entryY=-0.117;entryDx=0;entryDy=0;entryPerimeter=0;" parent="HCqicC56nlTVHEbhGD_D-2" source="HCqicC56nlTVHEbhGD_D-52" target="HCqicC56nlTVHEbhGD_D-60" edge="1">
          <mxGeometry relative="1" as="geometry" />
        </mxCell>
        <mxCell id="HCqicC56nlTVHEbhGD_D-52" value="Menerima Input User Secara Text" style="rounded=1;whiteSpace=wrap;html=1;" parent="HCqicC56nlTVHEbhGD_D-2" vertex="1">
          <mxGeometry x="140" y="760" width="120" height="60" as="geometry" />
        </mxCell>
        <mxCell id="HCqicC56nlTVHEbhGD_D-69" style="edgeStyle=orthogonalEdgeStyle;rounded=0;orthogonalLoop=1;jettySize=auto;html=1;entryX=0.75;entryY=0;entryDx=0;entryDy=0;" parent="HCqicC56nlTVHEbhGD_D-2" source="HCqicC56nlTVHEbhGD_D-53" target="HCqicC56nlTVHEbhGD_D-60" edge="1">
          <mxGeometry relative="1" as="geometry" />
        </mxCell>
        <mxCell id="HCqicC56nlTVHEbhGD_D-53" value="Menerima Input user Secara Suara" style="rounded=1;whiteSpace=wrap;html=1;" parent="HCqicC56nlTVHEbhGD_D-2" vertex="1">
          <mxGeometry x="270" y="760" width="120" height="60" as="geometry" />
        </mxCell>
        <mxCell id="P764LjMasquFLIwP9RHS-35" style="edgeStyle=orthogonalEdgeStyle;rounded=0;orthogonalLoop=1;jettySize=auto;html=1;" edge="1" parent="HCqicC56nlTVHEbhGD_D-2" source="HCqicC56nlTVHEbhGD_D-60" target="HCqicC56nlTVHEbhGD_D-76">
          <mxGeometry relative="1" as="geometry" />
        </mxCell>
        <mxCell id="HCqicC56nlTVHEbhGD_D-60" value="" style="rounded=1;whiteSpace=wrap;html=1;fillColor=light-dark(#040404, #ededed);" parent="HCqicC56nlTVHEbhGD_D-2" vertex="1">
          <mxGeometry x="165" y="870" width="190" height="10" as="geometry" />
        </mxCell>
        <mxCell id="HCqicC56nlTVHEbhGD_D-76" value="Mengirimkan Request Kepada Open AI" style="rounded=1;whiteSpace=wrap;html=1;" parent="HCqicC56nlTVHEbhGD_D-2" vertex="1">
          <mxGeometry x="200" y="920" width="120" height="60" as="geometry" />
        </mxCell>
        <mxCell id="HCqicC56nlTVHEbhGD_D-86" style="edgeStyle=orthogonalEdgeStyle;rounded=0;orthogonalLoop=1;jettySize=auto;html=1;entryX=0.5;entryY=0;entryDx=0;entryDy=0;" parent="HCqicC56nlTVHEbhGD_D-2" source="HCqicC56nlTVHEbhGD_D-79" edge="1">
          <mxGeometry relative="1" as="geometry">
            <mxPoint x="265" y="1120.0000000000002" as="targetPoint" />
          </mxGeometry>
        </mxCell>
        <mxCell id="HCqicC56nlTVHEbhGD_D-79" value="Menerima dan Menampilkan hasil analisis" style="rounded=1;whiteSpace=wrap;html=1;" parent="HCqicC56nlTVHEbhGD_D-2" vertex="1">
          <mxGeometry x="205" y="1020" width="120" height="60" as="geometry" />
        </mxCell>
        <mxCell id="P764LjMasquFLIwP9RHS-73" value="Menyimpan Hasil Analisis" style="rounded=1;whiteSpace=wrap;html=1;" vertex="1" parent="HCqicC56nlTVHEbhGD_D-2">
          <mxGeometry x="205" y="1120" width="120" height="60" as="geometry" />
        </mxCell>
        <mxCell id="P764LjMasquFLIwP9RHS-80" style="edgeStyle=orthogonalEdgeStyle;rounded=0;orthogonalLoop=1;jettySize=auto;html=1;entryX=0.5;entryY=0;entryDx=0;entryDy=0;" edge="1" parent="HCqicC56nlTVHEbhGD_D-2" source="P764LjMasquFLIwP9RHS-75" target="P764LjMasquFLIwP9RHS-79">
          <mxGeometry relative="1" as="geometry" />
        </mxCell>
        <mxCell id="P764LjMasquFLIwP9RHS-75" value="Memproses&lt;div&gt;Logout&lt;/div&gt;" style="rounded=1;whiteSpace=wrap;html=1;" vertex="1" parent="HCqicC56nlTVHEbhGD_D-2">
          <mxGeometry x="200" y="1210" width="120" height="60" as="geometry" />
        </mxCell>
        <mxCell id="P764LjMasquFLIwP9RHS-79" value="" style="ellipse;whiteSpace=wrap;html=1;aspect=fixed;strokeColor=#000000;fillColor=#FFFFFF;" vertex="1" parent="HCqicC56nlTVHEbhGD_D-2">
          <mxGeometry x="235" y="1330" width="50" height="50" as="geometry" />
        </mxCell>
        <mxCell id="P764LjMasquFLIwP9RHS-81" value="" style="ellipse;whiteSpace=wrap;html=1;aspect=fixed;strokeColor=#000000;fillColor=#000000;" vertex="1" parent="HCqicC56nlTVHEbhGD_D-2">
          <mxGeometry x="240" y="1335" width="40" height="40" as="geometry" />
        </mxCell>
        <mxCell id="P764LjMasquFLIwP9RHS-82" value="Selesai" style="text;html=1;align=center;verticalAlign=middle;resizable=0;points=[];autosize=1;strokeColor=none;fillColor=none;" vertex="1" parent="HCqicC56nlTVHEbhGD_D-2">
          <mxGeometry x="230" y="1375" width="60" height="30" as="geometry" />
        </mxCell>
        <mxCell id="HCqicC56nlTVHEbhGD_D-8" style="edgeStyle=orthogonalEdgeStyle;rounded=0;orthogonalLoop=1;jettySize=auto;html=1;entryX=0;entryY=0.5;entryDx=0;entryDy=0;" parent="1" source="HCqicC56nlTVHEbhGD_D-5" target="HCqicC56nlTVHEbhGD_D-6" edge="1">
          <mxGeometry relative="1" as="geometry" />
        </mxCell>
        <mxCell id="HCqicC56nlTVHEbhGD_D-9" style="edgeStyle=orthogonalEdgeStyle;rounded=0;orthogonalLoop=1;jettySize=auto;html=1;entryX=1;entryY=0.5;entryDx=0;entryDy=0;" parent="1" source="HCqicC56nlTVHEbhGD_D-6" target="HCqicC56nlTVHEbhGD_D-7" edge="1">
          <mxGeometry relative="1" as="geometry">
            <Array as="points">
              <mxPoint x="650" y="280" />
            </Array>
          </mxGeometry>
        </mxCell>
        <mxCell id="HCqicC56nlTVHEbhGD_D-20" style="edgeStyle=orthogonalEdgeStyle;rounded=0;orthogonalLoop=1;jettySize=auto;html=1;entryX=0;entryY=0.5;entryDx=0;entryDy=0;" parent="1" source="HCqicC56nlTVHEbhGD_D-7" target="HCqicC56nlTVHEbhGD_D-10" edge="1">
          <mxGeometry relative="1" as="geometry">
            <Array as="points">
              <mxPoint x="190" y="330" />
            </Array>
          </mxGeometry>
        </mxCell>
        <mxCell id="HCqicC56nlTVHEbhGD_D-21" style="edgeStyle=orthogonalEdgeStyle;rounded=0;orthogonalLoop=1;jettySize=auto;html=1;entryX=0;entryY=0.5;entryDx=0;entryDy=0;" parent="1" source="HCqicC56nlTVHEbhGD_D-14" target="HCqicC56nlTVHEbhGD_D-7" edge="1">
          <mxGeometry relative="1" as="geometry">
            <Array as="points">
              <mxPoint x="60" y="470" />
              <mxPoint x="60" y="280" />
            </Array>
          </mxGeometry>
        </mxCell>
        <mxCell id="HCqicC56nlTVHEbhGD_D-23" style="edgeStyle=orthogonalEdgeStyle;rounded=0;orthogonalLoop=1;jettySize=auto;html=1;" parent="1" source="HCqicC56nlTVHEbhGD_D-13" target="HCqicC56nlTVHEbhGD_D-22" edge="1">
          <mxGeometry relative="1" as="geometry" />
        </mxCell>
        <mxCell id="HCqicC56nlTVHEbhGD_D-25" style="edgeStyle=orthogonalEdgeStyle;rounded=0;orthogonalLoop=1;jettySize=auto;html=1;entryX=0;entryY=0.5;entryDx=0;entryDy=0;" parent="1" source="HCqicC56nlTVHEbhGD_D-22" target="HCqicC56nlTVHEbhGD_D-24" edge="1">
          <mxGeometry relative="1" as="geometry">
            <Array as="points">
              <mxPoint x="180" y="650" />
            </Array>
          </mxGeometry>
        </mxCell>
        <mxCell id="P764LjMasquFLIwP9RHS-1" value="Open AI" style="swimlane;whiteSpace=wrap;html=1;" vertex="1" parent="1">
          <mxGeometry x="830" y="20" width="390" height="1410" as="geometry" />
        </mxCell>
        <mxCell id="P764LjMasquFLIwP9RHS-68" style="edgeStyle=orthogonalEdgeStyle;rounded=0;orthogonalLoop=1;jettySize=auto;html=1;entryX=0.5;entryY=0;entryDx=0;entryDy=0;" edge="1" parent="P764LjMasquFLIwP9RHS-1" source="P764LjMasquFLIwP9RHS-65" target="P764LjMasquFLIwP9RHS-67">
          <mxGeometry relative="1" as="geometry" />
        </mxCell>
        <mxCell id="P764LjMasquFLIwP9RHS-65" value="Menganalisis Input" style="rounded=1;whiteSpace=wrap;html=1;" vertex="1" parent="P764LjMasquFLIwP9RHS-1">
          <mxGeometry x="150" y="920" width="120" height="60" as="geometry" />
        </mxCell>
        <mxCell id="P764LjMasquFLIwP9RHS-67" value="Memberikan Respons Terhadap Input" style="rounded=1;whiteSpace=wrap;html=1;" vertex="1" parent="P764LjMasquFLIwP9RHS-1">
          <mxGeometry x="150" y="1020" width="120" height="60" as="geometry" />
        </mxCell>
        <mxCell id="P764LjMasquFLIwP9RHS-66" style="edgeStyle=orthogonalEdgeStyle;rounded=0;orthogonalLoop=1;jettySize=auto;html=1;entryX=0;entryY=0.5;entryDx=0;entryDy=0;" edge="1" parent="1" source="HCqicC56nlTVHEbhGD_D-76" target="P764LjMasquFLIwP9RHS-65">
          <mxGeometry relative="1" as="geometry" />
        </mxCell>
        <mxCell id="P764LjMasquFLIwP9RHS-69" style="edgeStyle=orthogonalEdgeStyle;rounded=0;orthogonalLoop=1;jettySize=auto;html=1;entryX=1;entryY=0.5;entryDx=0;entryDy=0;" edge="1" parent="1" source="P764LjMasquFLIwP9RHS-67" target="HCqicC56nlTVHEbhGD_D-79">
          <mxGeometry relative="1" as="geometry" />
        </mxCell>
        <mxCell id="P764LjMasquFLIwP9RHS-70" style="edgeStyle=orthogonalEdgeStyle;rounded=0;orthogonalLoop=1;jettySize=auto;html=1;entryX=1;entryY=0.5;entryDx=0;entryDy=0;" edge="1" parent="1" source="HCqicC56nlTVHEbhGD_D-79" target="HCqicC56nlTVHEbhGD_D-74">
          <mxGeometry relative="1" as="geometry" />
        </mxCell>
        <mxCell id="P764LjMasquFLIwP9RHS-78" style="edgeStyle=orthogonalEdgeStyle;rounded=0;orthogonalLoop=1;jettySize=auto;html=1;entryX=0;entryY=0.5;entryDx=0;entryDy=0;" edge="1" parent="1" source="P764LjMasquFLIwP9RHS-72" target="P764LjMasquFLIwP9RHS-75">
          <mxGeometry relative="1" as="geometry" />
        </mxCell>
      </root>
    </mxGraphModel>
  </diagram>
</mxfile>
